P3
1 256
255
56 111 23 56 111 23 58 112 25 60 113 25 
61 117 26 60 116 25 63 121 27 62 121 26 
61 121 25 59 117 25 58 114 24 57 114 23 
59 117 24 57 114 23 56 113 22 55 112 21 
56 113 22 56 112 22 57 111 23 56 108 23 
56 110 23 54 106 21 53 105 20 55 109 22 
56 111 22 56 112 22 56 110 23 55 109 22 
55 107 22 56 107 23 56 106 23 56 109 22 
57 111 23 57 111 24 59 113 25 61 117 27 
60 116 25 61 117 26 59 114 24 59 113 25 
59 112 25 59 110 25 58 106 24 60 111 26 
60 112 26 60 113 26 60 111 26 60 113 26 
58 111 24 60 111 26 59 109 25 61 114 27 
61 114 26 61 114 26 60 113 26 60 113 26 
60 113 26 63 116 28 60 113 26 60 113 26 
58 112 25 58 111 24 58 109 24 62 115 27 
61 112 27 61 109 27 63 109 28 63 111 28 
64 112 29 65 112 29 63 110 28 64 112 29 
65 111 29 66 110 30 66 111 30 66 114 30 
66 117 30 67 121 31 71 124 33 74 129 34 
78 131 36 77 129 36 79 130 37 81 131 38 
80 131 38 82 130 38 80 129 38 80 128 37 
83 132 39 85 131 40 87 132 40 87 133 40 
86 131 40 83 126 39 87 130 41 88 131 41 
90 132 42 90 132 42 87 133 41 85 132 40 
86 133 40 85 129 40 86 128 40 87 127 40 
88 128 41 88 126 41 91 128 42 91 130 42 
92 133 43 91 130 42 91 132 42 91 132 42 
89 130 41 87 128 40 86 130 40 82 128 38 
85 128 40 86 128 40 86 129 40 87 129 41 
89 130 41 86 127 40 91 132 42 95 137 44 
95 136 44 98 135 44 98 133 44 97 132 44 
101 133 45 99 132 44 96 130 43 93 130 43 
90 127 41 91 125 41 93 127 42 93 127 42 
89 122 40 87 120 40 84 118 38 89 122 40 
90 120 40 91 123 41 93 124 42 93 126 42 
92 121 41 94 123 42 90 118 40 89 117 39 
88 114 38 89 115 39 91 118 40 96 126 43 
89 119 40 89 120 40 90 122 41 90 123 41 
90 119 40 89 117 39 81 109 36 78 107 35 
78 107 34 77 109 35 76 109 34 77 109 34 
71 102 31 73 101 32 75 102 32 78 104 34 
79 103 34 79 102 33 86 108 34 90 111 36 
90 108 36 94 112 38 93 117 40 88 117 36 
88 114 33 88 113 34 89 115 34 100 122 36 
102 120 39 102 119 36 111 129 40 107 124 36 
106 123 35 107 122 32 103 120 32 101 113 30 
104 115 33 100 106 30 97 102 29 88 94 28 
82 89 26 82 89 26 93 101 32 93 99 30 
101 104 31 99 102 30 101 106 33 106 105 30 
108 109 32 109 107 30 113 108 30 107 101 27 
109 103 27 112 106 28 118 111 31 117 110 31 
116 110 31 108 102 27 111 104 28 110 104 28 
108 102 27 109 102 26 109 102 27 105 98 24 
107 100 25 105 101 27 101 98 26 96 94 24 
94 91 22 90 88 20 93 89 19 90 87 18 
89 86 17 91 88 18 94 89 19 100 93 21 
99 92 21 96 90 19 96 90 17 94 89 18 
94 89 18 98 91 19 96 90 19 91 87 16 
89 86 14 85 84 14 84 83 12 86 84 13 
85 84 12 86 84 12 88 86 12 87 84 13 
87 85 14 88 85 14 85 84 13 85 84 12 
81 81 13 79 80 12 78 79 12 75 78 12 
71 76 10 73 77 10 70 76 10 71 75 11 
