P3
1 256
255
108 118 11 98 117 11 94 112 10 105 118 11 
109 121 11 110 126 14 113 129 17 110 129 19 
116 133 19 127 139 21 130 145 21 130 140 19 
132 142 19 131 150 19 129 149 17 129 150 14 
128 151 13 128 154 16 128 156 15 127 158 14 
125 158 14 113 149 12 108 146 10 108 139 13 
101 138 12 100 140 11 96 134 13 93 129 14 
99 131 14 101 137 16 101 139 21 104 141 21 
103 143 23 94 135 22 95 131 19 99 126 16 
97 126 17 101 130 20 88 126 18 79 122 17 
75 122 18 68 124 17 68 122 19 68 120 20 
69 127 21 71 131 21 78 139 24 85 148 22 
88 151 19 93 153 18 87 148 17 86 145 16 
74 138 16 62 133 13 65 127 13 64 121 11 
70 131 12 72 134 13 69 132 11 74 133 10 
76 135 10 78 136 12 76 131 12 82 131 14 
79 127 16 78 125 14 83 122 15 79 114 13 
89 119 16 89 121 17 90 120 18 90 119 18 
82 116 14 82 116 15 81 112 14 82 115 12 
76 114 11 70 111 12 67 109 11 67 108 8 
77 115 11 75 116 10 82 116 10 85 118 14 
78 121 15 80 125 14 77 118 12 79 117 12 
80 115 12 77 111 13 79 113 16 82 116 16 
91 124 20 93 126 24 102 126 26 105 125 27 
107 125 30 113 127 34 107 119 31 112 119 33 
114 121 34 116 122 35 123 126 37 117 125 37 
112 125 39 103 118 38 101 114 37 102 117 40 
102 116 41 101 115 42 96 108 38 105 112 40 
104 114 39 104 112 39 103 110 41 95 106 41 
97 109 44 98 110 45 99 111 46 105 115 46 
110 116 46 115 121 48 117 122 46 119 124 46 
115 127 47 115 124 48 115 122 49 114 121 53 
113 124 55 111 123 56 114 126 58 117 130 56 
120 131 55 126 133 53 131 134 53 135 136 50 
136 138 47 135 137 49 134 138 50 136 137 52 
132 138 56 129 137 60 131 135 63 128 136 65 
126 137 70 128 137 68 129 139 70 127 140 68 
128 141 67 127 141 70 126 141 70 128 140 69 
128 140 69 131 140 69 133 141 67 132 141 64 
131 141 64 135 142 63 136 141 62 136 141 63 
134 141 66 132 140 67 134 142 68 134 141 65 
133 142 62 136 141 63 136 141 65 136 141 61 
134 142 61 133 143 64 136 141 64 135 141 64 
137 140 64 140 140 62 140 140 59 139 140 62 
139 140 63 138 140 64 137 140 67 137 140 66 
136 141 68 133 141 70 135 141 69 133 141 68 
134 142 67 135 141 66 137 140 64 135 141 66 
135 141 69 134 141 71 132 141 74 130 142 74 
129 142 77 129 142 76 129 142 76 128 142 77 
130 142 77 130 142 79 132 142 78 133 142 78 
130 141 76 130 141 76 131 142 79 129 141 80 
130 141 81 132 142 80 131 143 80 130 142 78 
132 143 77 131 142 77 134 141 75 135 142 74 
134 142 76 135 141 75 133 141 77 132 142 79 
132 141 80 134 141 78 136 141 75 137 140 72 
138 140 69 138 141 71 138 141 69 138 141 69 
140 140 67 140 139 66 139 138 69 140 139 68 
138 139 71 139 138 70 139 138 68 136 139 72 
136 140 73 136 140 72 135 140 70 135 140 71 
137 139 67 138 140 65 138 139 62 140 140 56 
139 140 56 139 139 55 139 139 53 138 139 54 
137 139 54 138 139 53 136 139 52 134 139 53 
135 139 53 136 137 50 137 136 49 137 138 46 
136 139 49 134 137 48 133 139 48 135 141 47 
