P3
16 16
255
0 0 0 222 49 38 222 55 44 223 56 45 
223 58 47 223 60 49 224 61 50 224 65 54 
224 67 56 225 68 57 225 70 59 225 71 61 
225 73 63 225 70 59 222 49 38 0 0 0 
222 49 38 223 60 49 222 49 38 222 55 44 
223 60 49 224 63 52 224 67 56 225 71 61 
226 74 64 226 78 68 227 81 71 227 84 75 
228 87 78 228 90 80 228 90 80 222 49 38 
222 55 44 222 49 38 226 80 70 239 156 151 
239 158 153 232 114 106 225 71 61 226 74 64 
226 78 68 227 81 71 227 84 75 228 87 78 
228 90 80 228 92 82 228 85 76 225 68 57 
223 56 45 222 55 44 231 107 99 255 255 255 
255 255 255 255 255 255 253 243 243 241 166 161 
229 93 83 227 84 75 228 87 78 228 90 80 
228 92 82 228 85 76 226 78 68 224 67 56 
223 58 47 223 60 49 228 87 78 240 162 156 
244 186 182 251 232 231 255 255 255 255 255 255 
253 245 245 236 141 134 228 90 80 228 92 82 
228 85 76 226 78 68 225 71 61 224 63 52 
223 60 49 224 63 52 224 67 56 225 71 61 
226 74 64 226 78 68 234 125 118 250 224 222 
255 255 255 255 255 255 238 152 146 228 85 76 
226 78 68 225 71 61 224 65 54 223 60 49 
224 61 50 224 67 56 233 117 109 253 243 243 
248 211 208 239 156 151 229 95 87 228 87 78 
245 193 189 255 255 255 255 255 255 235 134 127 
225 71 61 224 65 54 223 58 47 223 56 45 
224 65 54 225 71 61 233 119 111 255 255 255 
255 255 255 255 255 255 253 245 245 233 120 113 
228 92 82 245 191 187 255 255 255 253 243 243 
226 76 66 223 58 47 222 53 42 222 55 44 
224 67 56 226 74 64 226 78 68 230 104 96 
238 148 142 252 233 232 255 255 255 253 245 245 
233 117 109 226 78 68 251 232 231 255 255 255 
239 156 151 222 53 42 221 46 35 222 51 40 
225 68 57 226 78 68 227 81 71 227 84 75 
228 87 78 230 98 90 245 193 189 255 255 255 
251 232 231 227 83 73 234 125 118 255 255 255 
253 242 241 221 46 35 217 44 33 221 48 37 
225 70 59 227 81 71 227 84 75 246 203 200 
248 215 212 238 152 146 229 95 87 252 233 232 
255 255 255 236 135 128 223 58 47 253 242 241 
255 255 255 227 81 71 210 43 32 221 46 35 
225 71 61 227 84 75 234 129 122 255 255 255 
255 255 255 248 213 210 226 78 68 238 152 146 
255 255 255 245 193 189 222 53 42 245 191 187 
255 255 255 235 132 125 206 43 32 218 45 34 
225 73 63 228 87 78 232 110 102 253 245 245 
255 255 255 242 176 172 225 71 61 232 112 104 
255 255 255 249 218 215 221 46 35 238 148 142 
255 255 255 237 144 137 201 42 31 217 44 33 
225 70 59 228 90 80 228 92 82 231 107 99 
233 122 115 225 71 61 224 65 54 223 58 47 
230 102 94 229 97 89 217 44 33 224 63 52 
228 87 78 222 55 44 198 41 30 220 45 34 
222 49 38 228 90 80 228 85 76 226 78 68 
225 71 61 224 65 54 223 58 47 222 53 42 
221 46 35 217 44 33 210 43 32 206 43 32 
201 42 31 198 41 30 217 44 33 222 49 38 
0 0 0 222 49 38 225 68 57 224 67 56 
224 63 52 223 60 49 223 56 45 222 55 44 
222 51 40 221 48 37 221 46 35 218 45 34 
217 44 33 220 45 34 222 49 38 0 0 0 
