P3
16 16
255
255 255 255 33 206 217 33 200 211 32 199 210 
32 197 208 32 195 206 31 194 205 31 190 201 
31 188 199 30 187 198 30 185 196 30 184 194 
30 182 192 30 185 196 33 206 217 255 255 255 
33 206 217 32 195 206 33 206 217 33 200 211 
32 195 206 31 192 203 31 188 199 30 184 194 
29 181 191 29 177 187 28 174 184 28 171 180 
27 168 177 27 165 175 27 165 175 33 206 217 
33 200 211 33 206 217 29 175 185 16 99 104 
16 97 102 23 141 149 30 184 194 29 181 191 
29 177 187 28 174 184 28 171 180 27 168 177 
27 165 175 27 163 173 27 170 179 30 187 198 
32 199 210 33 200 211 24 148 156 0 0 0 
0 0 0 0 0 0 2 12 12 14 89 94 
26 162 172 28 171 180 27 168 177 27 165 175 
27 163 173 27 170 179 29 177 187 31 188 199 
32 197 208 32 195 206 27 168 177 15 93 99 
11 69 73 4 23 24 0 0 0 0 0 0 
2 10 10 19 114 121 27 165 175 27 163 173 
27 170 179 29 177 187 30 184 194 31 192 203 
32 195 206 31 192 203 31 188 199 30 184 194 
29 181 191 29 177 187 21 130 137 5 31 33 
0 0 0 0 0 0 17 103 109 27 170 179 
29 177 187 30 184 194 31 190 201 32 195 206 
31 194 205 31 188 199 22 138 146 2 12 12 
7 44 47 16 99 104 26 160 168 27 168 177 
10 62 66 0 0 0 0 0 0 20 121 128 
30 184 194 31 190 201 32 197 208 32 199 210 
31 190 201 30 184 194 22 136 144 0 0 0 
0 0 0 0 0 0 2 10 10 22 135 142 
27 163 173 10 64 68 0 0 0 2 12 12 
29 179 189 32 197 208 33 202 213 33 200 211 
31 188 199 29 181 191 29 177 187 25 151 159 
17 107 113 3 22 23 0 0 0 2 10 10 
22 138 146 29 177 187 4 23 24 0 0 0 
16 99 104 33 202 213 34 209 220 33 204 215 
30 187 198 29 177 187 28 174 184 28 171 180 
27 168 177 25 157 165 10 62 66 0 0 0 
4 23 24 28 172 182 21 130 137 0 0 0 
2 13 14 34 209 220 38 211 222 34 207 218 
30 185 196 28 174 184 28 171 180 9 52 55 
7 40 43 17 103 109 26 160 168 3 22 23 
0 0 0 19 120 127 32 197 208 2 13 14 
0 0 0 28 174 184 45 212 223 34 209 220 
30 184 194 28 171 180 21 126 133 0 0 0 
0 0 0 7 42 45 29 177 187 17 103 109 
0 0 0 10 62 66 33 202 213 10 64 68 
0 0 0 20 123 130 49 212 223 37 210 221 
30 182 192 27 168 177 23 145 153 2 10 10 
0 0 0 13 79 83 30 184 194 23 143 151 
0 0 0 6 37 40 34 209 220 17 107 113 
0 0 0 18 111 118 54 213 224 38 211 222 
30 185 196 27 165 175 27 163 173 24 148 156 
22 133 140 30 184 194 31 190 201 32 197 208 
25 153 161 26 158 166 38 211 222 31 192 203 
27 168 177 33 200 211 57 214 225 35 210 221 
33 206 217 27 165 175 27 170 179 29 177 187 
30 184 194 31 190 201 32 197 208 33 202 213 
34 209 220 38 211 222 45 212 223 49 212 223 
54 213 224 57 214 225 38 211 222 33 206 217 
255 255 255 33 206 217 30 187 198 31 188 199 
31 192 203 32 195 206 32 199 210 33 200 211 
33 204 215 34 207 218 34 209 220 37 210 221 
38 211 222 35 210 221 33 206 217 255 255 255 
