P3
1 256
255
69 111 37 69 111 37 69 111 37 69 111 37 
70 111 37 72 113 37 75 117 36 80 122 35 
89 128 35 98 136 35 107 144 35 115 150 35 
121 155 36 125 157 37 127 157 37 127 156 37 
125 153 38 123 149 39 122 146 40 121 142 42 
122 141 43 123 141 45 125 141 46 127 141 48 
129 141 49 132 142 51 135 143 52 138 144 54 
141 146 55 145 148 56 148 150 57 152 152 57 
155 153 57 158 155 57 161 156 57 163 157 56 
165 157 56 167 157 55 168 157 54 168 157 53 
168 156 52 168 156 52 167 155 51 166 154 51 
165 154 51 164 153 51 163 152 51 161 152 52 
160 151 53 159 151 54 158 151 56 157 151 58 
157 152 60 157 152 63 158 153 67 159 154 70 
160 155 74 161 157 78 162 158 83 164 159 87 
165 159 90 167 160 93 168 160 96 169 160 98 
169 159 100 169 158 101 169 157 101 169 156 100 
169 155 99 168 154 97 167 153 95 167 152 93 
167 151 92 167 151 90 167 151 89 167 152 88 
168 153 88 169 154 88 170 156 89 172 158 91 
174 160 93 176 162 96 178 164 99 181 166 103 
183 169 108 186 171 112 189 173 117 192 175 121 
195 176 125 197 177 129 199 178 132 201 179 135 
203 179 137 204 179 138 205 178 138 206 177 138 
206 176 137 206 174 135 206 172 132 205 170 129 
205 168 125 204 165 121 203 162 116 201 160 112 
200 157 107 199 154 102 198 151 98 197 147 93 
195 144 89 194 141 84 193 137 80 192 133 76 
192 130 73 191 126 70 190 122 67 190 119 64 
190 116 61 190 113 59 191 111 56 191 109 54 
192 108 52 193 108 50 195 108 48 197 109 45 
199 111 43 201 114 41 203 117 38 205 121 36 
207 125 35 208 128 33 210 132 32 211 135 31 
211 137 30 211 139 30 211 140 31 210 140 32 
208 139 34 206 138 36 203 136 38 201 133 40 
198 130 43 195 127 45 193 124 47 191 121 49 
189 119 51 188 116 52 188 114 52 188 113 52 
189 112 51 190 112 50 192 113 48 194 114 46 
196 115 43 199 117 41 202 119 38 205 122 34 
208 124 31 211 126 29 213 128 26 215 130 24 
217 131 22 218 132 21 219 132 20 219 132 20 
219 132 20 218 131 21 217 129 22 216 127 23 
215 126 25 214 124 26 212 122 27 211 121 28 
210 121 29 210 121 30 210 121 30 210 122 31 
210 124 31 211 126 31 212 128 32 213 131 33 
214 134 34 214 137 36 215 140 38 216 143 41 
217 146 45 218 149 49 219 152 53 220 154 58 
221 157 63 222 159 67 223 161 71 224 163 75 
225 164 78 226 165 80 227 165 81 227 164 82 
228 163 82 228 161 81 228 159 79 228 156 76 
227 153 73 227 149 70 227 146 66 226 142 62 
226 138 59 225 134 56 225 131 53 224 128 50 
224 126 48 224 124 47 223 123 46 223 122 46 
223 122 47 222 122 48 222 123 50 222 125 53 
222 127 56 222 129 60 222 132 64 222 135 68 
222 138 72 222 142 77 222 146 82 222 149 87 
222 153 92 221 157 98 222 161 102 222 165 108 
222 169 112 222 173 117 221 177 123 221 180 129 
221 183 135 221 187 138 223 190 143 225 192 147 
228 196 154 230 199 158 230 202 163 231 205 169 
233 208 173 234 211 179 235 214 184 236 216 188 
237 220 194 240 224 199 241 226 204 241 228 209 
244 231 214 246 234 219 246 238 224 248 240 229 
250 243 233 250 246 239 251 249 244 253 252 248 
