P3
1 256
255
0 168 255 1 168 255 1 168 255 2 169 255 
3 169 255 3 169 255 4 169 255 5 170 255 
6 170 255 6 170 255 7 170 255 8 171 255 
9 171 255 10 171 255 10 172 255 11 172 255 
12 172 255 13 172 255 14 173 255 15 173 255 
16 173 255 17 174 255 18 174 255 19 174 255 
20 175 255 21 175 255 22 175 255 23 176 255 
24 176 255 25 176 255 26 177 255 27 177 255 
28 178 255 30 178 255 31 178 255 32 179 255 
33 179 255 34 180 255 35 180 254 37 180 254 
38 181 254 39 181 254 40 182 254 41 182 254 
43 182 254 44 183 254 45 183 254 47 184 254 
48 184 254 49 185 254 50 185 254 52 186 254 
53 186 254 54 186 254 56 187 254 57 187 254 
59 188 254 60 188 254 61 189 254 63 189 254 
64 190 254 66 190 254 67 191 254 68 191 254 
70 192 254 71 192 254 73 193 254 74 193 254 
76 194 254 77 194 254 78 195 254 80 195 254 
81 196 254 83 196 254 84 197 254 86 197 254 
87 198 254 89 198 254 90 199 254 92 199 254 
93 200 254 95 200 254 96 201 254 98 201 254 
99 202 254 101 202 254 102 203 253 104 203 253 
105 204 253 107 204 253 108 205 253 110 205 253 
112 206 253 113 206 253 115 207 253 116 207 253 
118 208 253 119 208 253 121 209 253 122 209 253 
124 210 253 125 210 253 127 211 253 128 211 253 
130 212 253 131 212 253 133 213 253 134 213 253 
136 214 253 137 214 253 139 215 253 140 215 253 
142 216 253 143 216 253 145 217 253 146 218 253 
148 218 253 149 219 253 151 219 253 152 220 253 
154 220 253 155 221 253 157 221 253 158 222 253 
160 222 253 161 222 253 163 223 253 164 223 253 
165 224 253 167 224 253 168 225 253 170 225 253 
171 226 253 173 226 253 174 227 253 175 227 253 
177 228 252 178 228 252 179 229 252 181 229 252 
182 230 252 183 230 252 185 230 252 186 231 252 
187 231 252 189 232 252 190 232 252 191 233 252 
193 233 252 194 234 252 195 234 252 196 234 252 
197 235 252 199 235 252 200 236 252 201 236 252 
202 236 252 203 237 252 205 237 252 206 238 252 
207 238 252 208 238 252 209 239 252 210 239 252 
211 239 252 212 240 252 213 240 252 214 241 252 
215 241 252 216 241 252 217 242 252 218 242 252 
219 242 252 220 243 252 221 243 252 222 243 252 
223 243 252 224 244 252 225 244 252 226 244 252 
227 245 252 227 245 252 228 245 252 229 245 252 
230 246 252 230 246 252 231 246 252 232 246 252 
233 247 252 233 247 252 234 247 252 235 248 252 
236 248 252 237 248 252 238 249 252 239 249 252 
240 249 252 241 249 252 241 250 252 242 250 252 
243 250 252 244 250 252 244 251 252 245 251 252 
246 251 252 246 251 252 247 252 252 248 252 252 
248 252 252 249 252 252 249 252 252 250 253 252 
250 253 252 251 253 252 251 253 252 252 253 252 
252 253 252 253 254 252 253 254 252 253 254 252 
254 254 252 254 254 252 254 254 252 255 254 252 
255 254 252 255 255 252 255 255 253 255 255 253 
255 255 253 255 255 253 255 255 253 255 255 253 
255 255 253 255 255 253 255 255 253 255 255 253 
255 255 253 255 255 253 255 255 253 255 255 253 
255 255 253 255 255 253 255 255 253 255 255 253 
255 255 253 255 255 253 255 255 253 255 255 253 
255 255 253 255 255 253 255 255 253 255 255 253 
255 255 253 255 255 254 255 255 254 255 255 255 
