P3
1 256
255
108 118 11 98 117 11 94 112 10 105 118 11 
109 121 11 110 126 14 113 129 17 110 129 19 
116 133 19 127 139 21 130 145 21 130 140 19 
132 142 19 131 150 19 129 149 17 129 150 14 
128 151 13 128 154 16 128 156 15 127 158 14 
125 158 14 113 149 12 108 146 10 108 139 13 
101 138 12 100 140 11 96 134 13 93 129 14 
99 131 14 101 137 16 101 139 21 104 141 21 
103 143 23 94 135 22 95 131 19 99 126 16 
97 126 17 101 130 20 88 126 18 79 122 17 
75 122 18 68 124 17 68 122 19 68 120 20 
69 127 21 71 131 21 78 139 24 85 148 22 
88 151 19 93 153 18 87 148 17 86 145 16 
74 138 16 62 133 13 65 127 13 64 121 11 
70 131 12 72 134 13 69 132 11 74 133 10 
76 135 10 78 136 12 76 131 12 82 131 14 
79 127 16 78 125 14 83 122 15 79 114 13 
89 119 16 89 121 17 90 120 18 90 119 18 
82 116 14 82 116 15 81 112 14 82 115 12 
76 114 11 70 111 12 67 109 11 67 108 8 
77 115 11 75 116 10 82 116 10 85 118 14 
78 121 15 80 125 14 77 118 12 79 117 12 
80 115 12 77 111 13 79 113 16 82 116 16 
91 124 20 93 126 24 102 126 26 105 125 27 
106 124 29 112 126 33 106 118 30 111 118 32 
113 120 33 115 121 34 122 125 36 116 124 36 
110 123 37 100 115 35 98 111 34 98 113 36 
98 112 37 96 110 37 90 102 32 98 105 33 
97 107 32 95 103 30 93 100 31 83 94 29 
84 96 31 84 96 31 84 96 31 89 99 30 
95 101 31 100 106 33 101 106 30 104 109 31 
99 111 31 95 104 28 91 98 25 85 92 24 
83 94 25 78 90 23 82 94 26 89 102 28 
91 102 26 100 107 27 107 110 29 115 116 30 
120 122 31 117 119 31 112 116 28 110 111 26 
105 111 29 94 102 25 91 95 23 88 96 25 
83 94 27 89 98 29 90 100 31 93 106 34 
97 110 36 93 107 36 92 107 36 93 105 34 
94 106 35 97 106 35 102 110 36 106 115 38 
106 116 39 110 117 38 111 116 37 110 115 37 
104 111 36 99 107 34 101 109 35 103 110 34 
105 114 34 106 111 33 102 107 31 111 116 36 
113 121 40 108 118 39 108 113 36 107 113 36 
107 110 34 111 111 33 115 115 34 111 112 34 
109 110 33 108 110 34 102 105 32 104 107 33 
101 106 33 97 105 34 99 105 33 100 108 35 
103 111 36 103 109 34 108 111 35 105 111 36 
100 106 34 95 102 32 89 98 31 89 101 33 
83 96 31 83 96 30 83 96 30 81 95 30 
84 96 31 79 91 28 81 91 27 84 93 29 
83 94 29 84 95 30 80 91 28 76 88 27 
74 85 25 78 88 26 78 90 27 80 92 28 
85 96 30 83 94 29 89 96 30 92 99 31 
88 96 30 88 94 28 84 92 28 81 91 28 
77 86 25 80 87 24 87 92 26 92 95 27 
98 100 29 96 99 29 99 102 30 99 102 30 
103 103 30 103 102 29 95 94 25 98 97 26 
93 94 26 93 92 24 96 95 25 90 93 26 
91 95 28 91 95 27 95 100 30 94 99 30 
100 102 30 105 107 32 110 111 34 121 121 37 
120 121 37 120 120 36 123 123 37 121 122 37 
121 123 38 123 124 38 125 128 41 122 127 41 
122 126 40 125 126 39 126 125 38 131 132 40 
129 132 42 127 130 41 128 134 43 132 138 44 
