P3
1 256
255
220 217 213 218 214 210 204 200 196 186 181 176 
175 169 161 162 154 145 152 144 134 140 133 126 
142 134 125 142 134 125 146 138 128 142 134 125 
131 124 117 128 122 115 124 118 112 125 120 113 
134 128 121 134 128 120 136 130 122 135 129 121 
139 132 124 133 127 120 126 120 114 125 120 113 
131 125 118 134 128 120 120 115 108 126 121 114 
132 126 119 137 131 123 145 138 128 137 130 122 
141 133 125 144 137 128 140 133 125 140 133 124 
141 133 123 145 137 128 137 130 122 143 136 127 
143 136 127 146 139 129 152 143 132 153 144 133 
157 147 135 148 140 130 144 137 128 146 139 129 
146 139 129 151 142 132 146 138 128 153 144 133 
146 138 129 148 140 130 143 136 127 148 140 129 
163 151 136 158 147 134 149 141 130 143 136 127 
147 139 129 157 147 135 149 141 131 145 138 128 
132 126 119 124 119 112 115 110 104 115 110 104 
124 119 112 121 115 109 133 127 120 136 130 122 
134 128 120 135 128 120 126 120 113 138 131 123 
138 132 123 135 129 121 126 121 114 122 117 111 
140 134 125 138 131 123 137 130 122 128 122 114 
134 128 120 128 122 116 121 116 110 134 128 120 
123 118 111 124 119 113 119 114 107 109 104 98 
123 117 111 124 119 112 141 133 121 139 132 123 
146 138 127 118 113 106 105 100 94 108 103 97 
103 98 91 116 111 105 111 106 100 112 105 96 
117 109 97 96 89 79 102 95 86 110 104 97 
117 111 103 102 98 91 87 81 73 83 78 70 
98 93 85 102 97 89 95 90 83 96 89 80 
100 94 86 95 88 78 104 96 85 101 94 85 
102 94 84 107 100 89 104 95 81 105 96 84 
103 93 78 99 90 76 104 95 83 116 105 88 
112 102 88 100 93 81 98 89 77 102 92 77 
113 103 87 114 105 90 112 101 84 121 112 99 
120 112 99 118 109 95 115 106 93 116 107 93 
114 105 91 118 108 91 112 103 88 119 109 93 
125 113 96 127 117 103 133 123 107 137 126 109 
133 122 106 126 114 97 124 111 93 122 109 90 
120 110 96 122 111 96 115 104 89 123 112 94 
115 104 88 116 107 93 124 114 98 132 122 107 
135 125 110 127 117 102 125 116 103 125 116 103 
127 118 105 121 111 95 117 108 95 125 115 101 
122 112 97 127 117 103 124 114 98 121 111 95 
125 116 102 120 112 101 124 115 103 122 113 101 
119 112 102 124 115 103 136 126 111 144 134 120 
141 132 120 141 132 119 138 129 117 138 130 119 
142 133 121 134 127 117 139 132 122 141 132 120 
138 130 118 135 128 118 132 125 116 136 129 119 
135 128 118 138 130 120 139 131 119 138 130 119 
139 131 120 133 126 116 145 137 125 142 135 125 
144 136 127 141 134 124 136 129 119 139 132 122 
132 126 117 135 129 120 137 130 121 135 129 120 
132 125 117 128 122 115 141 134 124 136 129 120 
138 131 121 126 121 113 124 118 110 130 122 112 
118 112 104 124 118 110 131 124 116 141 134 125 
142 135 126 143 135 124 144 136 125 140 133 124 
152 143 132 155 146 134 151 143 132 138 131 123 
117 112 106 128 122 115 129 124 116 140 134 125 
138 131 122 134 126 117 144 135 125 141 133 123 
130 122 113 127 119 109 132 125 116 132 125 117 
118 112 105 122 116 109 109 103 96 132 125 117 
135 128 119 131 124 115 130 121 112 112 105 97 
102 96 90 102 96 89 113 105 95 124 116 107 
110 104 96 113 108 102 99 95 89 98 93 87 
