P3
1 256
255
210 210 210 204 202 199 197 191 183 188 178 165 
178 164 145 168 151 124 156 138 104 144 128 87 
137 125 79 136 124 77 135 123 76 133 123 75 
132 122 73 130 122 72 129 121 70 127 121 69 
126 121 67 124 120 66 123 120 65 121 120 63 
119 120 62 117 120 60 116 120 59 114 120 58 
112 120 56 110 120 55 109 120 53 107 120 52 
105 120 51 103 120 49 101 120 48 99 120 47 
97 120 45 95 120 44 94 120 43 92 120 42 
90 120 40 88 120 39 86 120 38 84 120 37 
82 120 35 80 120 34 78 120 33 76 120 32 
74 120 31 73 120 29 71 120 28 69 120 27 
67 120 26 65 120 25 63 120 24 69 111 37 
69 111 37 69 111 37 69 111 37 71 112 37 
74 115 36 79 121 35 88 128 35 98 136 35 
108 145 35 117 152 35 123 156 37 126 157 37 
127 157 37 126 154 38 123 149 39 122 146 40 
121 142 42 122 141 44 124 141 45 126 141 47 
128 141 49 131 142 51 135 143 52 138 144 54 
142 146 55 146 149 56 149 151 57 154 153 57 
157 154 57 160 156 57 163 157 56 165 157 56 
167 157 55 168 157 54 168 157 53 168 156 52 
168 156 51 166 154 51 165 154 51 164 153 51 
163 152 51 161 152 52 160 151 53 159 151 55 
157 151 57 157 152 59 157 152 62 158 153 67 
159 154 70 160 155 75 161 157 80 163 159 85 
165 159 89 166 160 92 168 160 96 169 160 98 
169 159 100 169 158 101 169 157 101 169 156 100 
169 154 98 167 153 96 167 152 93 167 151 92 
167 151 90 167 151 89 167 152 88 168 153 88 
169 155 88 171 157 90 174 160 93 176 162 96 
178 164 99 181 166 104 184 170 109 187 172 114 
191 174 119 194 176 124 197 177 128 199 178 132 
201 179 135 203 179 137 204 179 138 205 178 138 
206 177 138 206 175 136 206 173 133 205 170 129 
205 168 125 204 165 120 203 162 115 201 159 110 
200 156 104 198 152 100 197 148 94 195 144 90 
194 141 84 193 137 80 192 132 75 192 129 72 
190 124 69 190 120 65 190 117 62 190 113 59 
191 111 56 191 109 54 192 108 52 194 108 49 
196 108 47 198 110 44 200 113 42 203 116 39 
205 121 36 207 125 35 208 129 33 210 133 32 
211 136 30 211 138 30 211 140 31 210 140 32 
208 139 34 206 138 36 203 136 38 200 132 41 
197 129 44 194 125 46 192 122 48 189 119 51 
188 116 52 188 114 52 188 113 52 189 112 51 
191 112 49 193 114 47 195 115 44 198 116 41 
202 119 38 205 122 34 208 124 31 212 127 28 
214 129 25 216 131 23 218 132 21 219 132 20 
219 132 20 219 132 20 218 131 21 217 128 22 
216 127 24 215 125 26 213 123 27 211 121 28 
210 121 29 210 121 30 210 121 30 210 122 31 
210 125 31 211 127 31 213 130 33 214 133 34 
214 137 36 215 140 38 216 143 41 217 147 46 
218 150 50 219 153 55 221 156 61 222 158 66 
223 161 70 224 163 75 225 164 78 226 165 80 
227 165 81 227 164 82 228 162 82 228 160 80 
228 157 77 227 153 73 227 149 70 227 145 65 
226 141 61 226 136 58 225 132 54 224 129 51 
224 126 48 224 124 47 223 123 46 223 122 46 
223 122 47 222 122 49 222 124 51 222 126 55 
222 128 59 222 132 64 222 135 68 222 138 73 
222 143 78 222 147 84 222 151 89 221 156 96 
222 160 101 222 165 107 222 169 112 222 173 118 
