P3
1 256
255
142 214 227 140 210 226 136 206 225 133 201 224 
129 195 223 124 189 222 119 182 220 114 175 219 
108 168 218 103 160 216 97 152 215 91 144 213 
85 135 212 79 127 210 73 119 208 67 111 206 
61 103 204 55 95 201 50 87 199 45 80 197 
40 73 194 35 66 191 31 60 188 27 55 185 
23 50 182 21 47 179 20 45 178 19 44 176 
18 42 175 17 41 173 16 39 171 15 38 169 
14 37 168 13 35 166 13 34 164 12 33 162 
11 32 160 10 31 158 10 30 156 9 29 154 
9 28 152 8 27 149 7 26 147 7 25 145 
7 25 143 6 24 141 6 23 138 5 23 136 
5 22 134 5 21 131 4 21 129 4 20 127 
4 20 124 4 19 122 3 19 120 3 18 117 
3 18 115 3 18 112 3 17 110 3 17 108 
2 17 105 2 16 103 2 16 101 2 16 98 
2 15 96 2 15 94 2 15 92 2 15 89 
2 14 87 2 14 85 2 14 83 1 14 81 
1 13 79 1 13 77 1 13 75 1 12 73 
1 12 71 1 12 69 1 12 67 1 11 65 
1 11 64 0 10 62 0 10 60 0 10 59 
0 9 58 0 9 57 0 9 57 0 9 56 
0 9 56 0 9 55 0 9 55 0 9 54 
0 8 54 0 8 53 0 8 53 0 8 52 
0 8 52 0 8 51 0 8 51 0 8 50 
0 7 50 0 7 49 0 7 49 0 7 48 
0 7 48 0 7 47 0 7 47 0 7 46 
0 7 46 0 7 45 0 6 45 0 6 45 
0 6 44 0 6 44 0 6 43 0 6 43 
0 6 42 0 6 42 0 6 41 0 6 41 
0 5 40 0 5 40 0 5 40 0 5 39 
0 5 39 0 5 38 0 5 38 0 5 37 
0 5 37 0 5 37 0 5 36 0 5 36 
0 4 35 0 4 35 0 4 35 0 4 34 
0 4 34 0 4 33 0 4 33 0 4 33 
0 4 32 0 4 32 0 4 31 0 4 31 
0 4 31 0 4 30 0 4 30 0 4 29 
0 3 29 0 3 29 0 3 28 0 3 28 
0 3 28 0 3 27 0 3 27 0 3 26 
0 3 26 0 3 26 0 3 25 0 3 25 
0 3 25 0 3 24 0 3 24 0 3 24 
0 3 23 0 3 23 0 3 23 0 2 22 
0 2 22 0 2 22 0 2 21 0 2 21 
0 2 21 0 2 20 0 2 20 0 2 20 
0 2 19 0 2 19 0 2 19 0 2 18 
0 2 18 0 2 18 0 2 17 0 2 17 
0 2 17 0 2 17 0 2 16 0 2 16 
0 2 16 0 2 15 0 2 15 0 2 15 
0 2 14 0 2 14 0 2 14 0 2 14 
0 1 13 0 1 13 0 1 13 0 1 13 
0 1 12 0 1 12 0 1 12 0 1 11 
0 1 11 0 1 11 0 1 11 0 1 10 
0 1 10 0 1 10 0 1 10 0 1 9 
0 1 9 0 1 9 0 1 9 0 1 8 
0 1 8 0 1 8 0 1 8 0 1 7 
0 1 7 0 1 7 0 1 7 0 1 7 
0 1 6 0 1 6 0 1 6 0 1 6 
0 1 5 0 1 5 0 1 5 0 1 5 
0 1 5 0 1 4 0 1 4 0 1 4 
0 1 4 0 0 4 0 0 3 0 0 3 
0 0 3 0 0 3 0 0 3 0 0 2 
0 0 2 0 0 2 0 0 2 0 0 2 
0 0 1 0 0 1 0 0 1 0 0 1 
0 0 1 0 0 1 0 0 0 0 0 0 
