P3
1 256
255
170 171 171 166 169 170 159 168 169 151 166 168 
143 162 166 133 156 163 125 150 160 122 147 158 
119 144 157 116 141 156 112 137 154 108 133 153 
104 129 151 100 125 150 96 121 148 92 116 147 
88 112 145 84 107 143 80 103 141 76 98 139 
73 94 137 69 89 135 65 85 133 62 81 131 
59 78 129 56 74 127 53 71 125 51 68 122 
49 66 121 48 65 120 48 64 119 47 63 118 
46 62 117 46 62 116 45 61 115 45 60 114 
44 59 113 44 59 112 43 58 111 43 57 110 
42 57 109 42 56 108 42 56 107 41 55 106 
41 55 105 41 54 104 41 54 103 40 54 102 
40 53 100 40 53 99 40 52 98 40 52 97 
40 52 96 39 51 95 39 51 94 39 51 93 
39 50 91 39 50 90 39 50 89 39 50 88 
39 49 87 39 49 86 39 49 84 39 48 83 
39 48 82 38 48 81 38 48 80 38 47 79 
38 47 78 38 47 76 38 46 75 38 46 74 
38 46 73 38 45 72 37 45 71 37 45 70 
37 44 68 37 44 67 37 43 66 36 43 65 
36 43 64 36 42 63 35 42 62 35 41 61 
35 40 60 34 40 59 34 40 59 34 40 58 
34 39 58 34 39 57 33 39 57 33 39 57 
33 39 56 33 38 56 33 38 56 33 38 55 
32 38 55 32 38 55 32 37 54 32 37 54 
32 37 53 32 37 53 31 36 53 31 36 52 
31 36 52 31 36 51 31 35 51 30 35 51 
30 35 50 30 35 50 30 35 50 30 34 49 
29 34 49 29 34 48 29 34 48 29 33 48 
29 33 47 28 33 47 28 33 46 28 32 46 
28 32 46 28 32 45 27 32 45 27 31 44 
27 31 44 27 31 44 27 30 43 26 30 43 
26 30 42 26 30 42 26 29 42 25 29 41 
25 29 41 25 29 40 25 28 40 25 28 40 
24 28 39 24 28 39 24 27 38 24 27 38 
23 27 38 23 26 37 23 26 37 23 26 36 
22 26 36 22 25 36 22 25 35 22 25 35 
22 25 34 21 24 34 21 24 34 21 24 33 
21 23 33 20 23 32 20 23 32 20 23 32 
20 22 31 19 22 31 19 22 30 19 22 30 
19 21 30 18 21 29 18 21 29 18 20 28 
18 20 28 17 20 28 17 20 27 17 19 27 
17 19 27 16 19 26 16 18 26 16 18 25 
16 18 25 16 18 25 15 17 24 15 17 24 
15 17 23 15 17 23 14 16 23 14 16 22 
14 16 22 14 16 22 13 15 21 13 15 21 
13 15 20 13 14 20 12 14 20 12 14 19 
12 14 19 12 13 19 12 13 18 11 13 18 
11 13 18 11 12 17 11 12 17 10 12 17 
10 12 16 10 11 16 10 11 15 10 11 15 
9 11 15 9 10 14 9 10 14 9 10 14 
8 10 13 8 9 13 8 9 13 8 9 12 
8 9 12 7 8 12 7 8 12 7 8 11 
7 8 11 7 8 11 6 7 10 6 7 10 
6 7 10 6 7 9 6 6 9 5 6 9 
5 6 8 5 6 8 5 6 8 5 5 8 
5 5 7 4 5 7 4 5 7 4 5 7 
4 4 6 4 4 6 4 4 6 3 4 5 
3 4 5 3 3 5 3 3 5 3 3 4 
3 3 4 2 3 4 2 3 4 2 2 3 
2 2 3 2 2 3 2 2 3 2 2 3 
1 2 2 1 1 2 1 1 2 1 1 2 
1 1 1 1 1 1 1 1 1 1 1 1 
0 0 1 0 0 1 0 0 0 0 0 0 
