P3
1 256
255
164 206 214 164 206 214 164 206 214 163 205 214 
163 205 214 162 204 214 162 204 213 162 203 213 
161 203 213 161 202 213 160 202 213 160 201 213 
159 200 213 159 200 213 158 199 213 158 199 213 
157 198 212 156 198 212 156 197 212 155 196 212 
155 196 212 154 195 212 153 194 212 153 194 212 
152 193 212 152 192 212 151 192 211 150 191 211 
150 190 211 149 189 211 148 189 211 148 188 211 
147 187 211 146 187 211 146 186 211 145 185 211 
144 184 210 143 183 210 143 183 210 142 182 210 
141 181 210 140 180 210 140 179 210 139 179 210 
138 178 209 137 177 209 137 176 209 136 175 209 
135 174 209 134 173 209 133 173 209 133 172 209 
132 171 209 131 170 208 130 169 208 129 168 208 
128 167 208 128 166 208 127 165 208 126 164 208 
125 163 207 124 162 207 123 162 207 122 161 207 
122 160 207 121 159 207 120 158 207 119 157 207 
118 156 206 117 155 206 116 154 206 115 153 206 
114 152 206 113 151 206 113 150 206 112 149 205 
111 148 205 110 147 205 109 146 205 108 145 205 
107 144 205 106 143 205 105 142 204 104 141 204 
103 140 204 102 139 204 101 138 204 101 137 204 
100 136 203 99 135 203 98 134 203 97 133 203 
96 132 203 95 131 203 94 130 202 93 129 202 
92 128 202 91 127 202 90 126 202 89 125 202 
88 123 201 87 122 201 86 121 201 85 120 201 
85 119 201 84 118 200 83 117 200 82 116 200 
81 115 200 80 114 200 79 113 200 78 112 199 
77 111 199 76 110 199 75 109 199 74 108 199 
73 107 198 73 106 198 72 105 198 71 104 198 
70 103 198 69 102 197 68 101 197 67 100 197 
66 99 197 65 98 197 64 97 196 64 96 196 
63 95 196 62 94 196 61 93 195 60 92 195 
59 91 195 58 90 195 57 89 195 57 88 194 
56 87 194 55 87 194 54 86 194 53 85 193 
52 84 193 52 83 193 51 82 193 50 81 192 
49 80 192 48 79 192 48 78 192 47 77 191 
46 76 191 45 76 191 45 75 191 44 74 190 
43 73 190 42 72 190 42 71 190 41 70 189 
40 70 189 39 69 189 39 68 189 38 67 188 
37 66 188 37 66 188 36 65 188 35 64 187 
35 63 187 34 62 187 33 62 186 33 61 186 
32 60 186 31 60 186 31 59 185 30 58 185 
30 57 185 29 57 184 28 56 184 28 55 184 
27 55 183 27 54 183 26 53 183 26 53 183 
25 52 182 25 51 182 24 51 182 24 50 181 
23 50 181 23 49 181 22 48 180 22 48 180 
21 46 179 20 45 178 19 44 177 18 42 176 
17 41 175 16 40 174 15 38 173 14 37 172 
13 36 171 12 35 169 12 34 168 11 32 167 
10 31 166 10 30 164 9 29 163 8 28 161 
8 27 160 7 26 159 7 25 157 7 25 156 
6 24 154 6 23 153 5 22 151 5 21 150 
5 20 148 5 20 147 4 19 145 4 18 144 
4 18 142 4 17 141 4 16 139 3 16 138 
3 15 136 3 14 135 3 14 133 3 13 132 
3 13 130 3 12 129 3 12 127 3 11 126 
3 11 124 3 10 123 3 10 121 3 9 120 
3 9 118 3 8 117 3 8 115 3 7 114 
3 7 113 3 7 111 3 6 110 3 6 109 
3 6 108 3 5 106 3 5 105 3 4 104 
3 4 103 3 4 102 3 3 101 3 3 100 
3 3 99 3 2 98 3 2 97 3 2 96 
3 1 95 3 1 94 2 1 93 2 0 93 
