P3
1 256
255
89 230 255 89 229 255 88 228 254 88 227 254 
88 227 254 88 226 253 87 225 253 87 224 253 
87 223 252 86 222 252 86 221 252 85 220 251 
85 219 251 85 218 250 84 217 250 84 216 250 
83 215 249 83 213 249 83 212 248 82 211 248 
82 210 247 81 208 247 81 207 247 80 206 246 
80 205 246 79 203 245 79 202 245 78 201 244 
78 199 244 77 198 243 77 196 243 76 195 242 
76 193 242 75 192 241 75 190 241 74 189 240 
73 187 240 73 186 239 72 184 238 72 183 238 
71 181 237 71 180 237 70 178 236 69 176 236 
69 175 235 68 173 234 68 171 234 67 170 233 
66 168 233 66 166 232 65 165 231 65 163 231 
64 161 230 63 160 230 63 158 229 62 156 228 
61 155 228 61 153 227 60 151 226 59 149 226 
59 148 225 58 146 225 58 144 224 57 142 223 
56 141 223 56 139 222 55 137 221 54 135 221 
54 134 220 53 132 219 52 130 219 52 128 218 
51 127 217 50 125 217 50 123 216 49 122 215 
49 120 215 48 118 214 47 116 213 47 115 213 
46 113 212 45 111 211 45 110 210 44 108 210 
44 106 209 43 104 208 42 103 208 42 101 207 
41 100 206 40 98 206 40 96 205 39 95 204 
39 93 204 38 91 203 38 90 202 37 88 201 
36 87 201 36 85 200 35 84 199 35 82 199 
34 81 198 34 79 197 33 78 197 32 76 196 
32 75 195 31 73 195 31 72 194 30 71 193 
30 69 192 29 68 192 29 67 191 28 65 190 
28 64 190 27 63 189 27 62 188 27 60 188 
26 59 187 26 58 186 25 57 186 25 56 185 
24 55 184 24 54 184 24 53 183 23 52 182 
23 51 182 22 50 181 22 49 180 22 48 180 
21 47 179 21 46 179 21 45 178 20 44 177 
20 43 177 20 43 176 20 42 175 19 41 175 
19 40 174 19 39 173 18 39 173 18 38 172 
18 37 171 18 37 170 17 36 170 17 35 169 
17 34 168 16 34 167 16 33 167 16 32 166 
16 32 165 15 31 165 15 31 164 15 30 163 
15 29 162 14 29 162 14 28 161 14 28 160 
14 27 159 14 27 158 13 26 158 13 25 157 
13 25 156 13 24 155 13 24 155 12 23 154 
12 23 153 12 22 152 12 22 151 12 22 151 
11 21 150 11 21 149 11 20 148 11 20 147 
11 19 147 11 19 146 10 19 145 10 18 144 
10 18 143 10 17 143 10 17 142 10 17 141 
9 16 140 9 16 139 9 16 139 9 15 138 
9 15 137 9 15 136 9 14 136 8 14 135 
8 14 134 8 13 133 8 13 132 8 13 132 
8 12 131 8 12 130 8 12 129 7 12 129 
7 11 128 7 11 127 7 11 126 7 11 125 
7 10 125 7 10 124 7 10 123 6 10 122 
6 9 122 6 9 121 6 9 120 6 9 120 
6 8 119 6 8 118 6 8 117 6 8 117 
6 8 116 6 7 115 5 7 115 5 7 114 
5 7 113 5 7 112 5 6 112 5 6 111 
5 6 110 5 6 110 5 6 109 5 6 109 
5 5 108 4 5 107 4 5 107 4 5 106 
4 5 105 4 5 105 4 4 104 4 4 104 
4 4 103 4 4 103 4 4 102 4 4 101 
4 3 101 4 3 100 3 3 100 3 3 99 
3 3 99 3 3 98 3 2 98 3 2 97 
3 2 97 3 2 96 3 2 96 3 2 96 
3 1 95 3 1 95 3 1 94 3 1 94 
2 1 93 2 1 93 2 0 93 2 0 92 
