P3
1 256
255
154 182 192 152 179 191 149 177 189 146 174 187 
143 170 185 140 167 183 136 163 181 132 158 179 
128 154 176 124 149 174 120 145 171 115 140 168 
111 135 166 106 130 163 102 125 160 97 119 157 
92 114 154 88 109 151 83 104 148 79 100 145 
75 95 142 70 90 139 67 86 136 63 82 133 
59 78 130 56 74 128 53 71 125 51 68 123 
49 66 121 48 65 119 47 63 118 46 62 117 
45 61 116 45 60 115 44 59 114 43 59 113 
43 58 111 42 57 110 41 56 109 41 56 108 
40 55 107 40 54 106 40 54 105 39 53 104 
39 53 102 39 52 101 39 52 100 38 51 99 
38 51 98 38 50 97 38 50 96 38 50 95 
38 50 94 38 49 93 38 49 92 37 49 90 
37 48 89 37 48 88 37 48 87 37 48 86 
37 48 85 37 47 84 37 47 83 37 47 82 
37 47 81 37 47 80 37 46 79 37 46 78 
37 46 77 37 46 76 37 46 75 37 45 73 
37 45 72 37 45 71 37 45 70 37 44 69 
37 44 68 37 44 67 36 43 66 36 43 65 
36 42 64 36 42 63 35 42 62 35 41 61 
35 40 60 34 40 59 34 40 59 34 40 58 
34 39 58 34 39 57 33 39 57 33 39 57 
33 39 56 33 38 56 33 38 56 33 38 55 
32 38 55 32 38 55 32 37 54 32 37 54 
32 37 53 32 37 53 31 36 53 31 36 52 
31 36 52 31 36 51 31 35 51 30 35 51 
30 35 50 30 35 50 30 35 50 30 34 49 
29 34 49 29 34 48 29 34 48 29 33 48 
29 33 47 28 33 47 28 33 46 28 32 46 
28 32 46 28 32 45 27 32 45 27 31 44 
27 31 44 27 31 44 27 30 43 26 30 43 
26 30 42 26 30 42 26 29 42 25 29 41 
25 29 41 25 29 40 25 28 40 25 28 40 
24 28 39 24 28 39 24 27 38 24 27 38 
23 27 38 23 26 37 23 26 37 23 26 36 
22 26 36 22 25 36 22 25 35 22 25 35 
22 25 34 21 24 34 21 24 34 21 24 33 
21 23 33 20 23 32 20 23 32 20 23 32 
20 22 31 19 22 31 19 22 30 19 22 30 
19 21 30 18 21 29 18 21 29 18 20 28 
18 20 28 17 20 28 17 20 27 17 19 27 
17 19 27 16 19 26 16 18 26 16 18 25 
16 18 25 16 18 25 15 17 24 15 17 24 
15 17 23 15 17 23 14 16 23 14 16 22 
14 16 22 14 16 22 13 15 21 13 15 21 
13 15 20 13 14 20 12 14 20 12 14 19 
12 14 19 12 13 19 12 13 18 11 13 18 
11 13 18 11 12 17 11 12 17 10 12 17 
10 12 16 10 11 16 10 11 15 10 11 15 
9 11 15 9 10 14 9 10 14 9 10 14 
8 10 13 8 9 13 8 9 13 8 9 12 
8 9 12 7 8 12 7 8 12 7 8 11 
7 8 11 7 8 11 6 7 10 6 7 10 
6 7 10 6 7 9 6 6 9 5 6 9 
5 6 8 5 6 8 5 6 8 5 5 8 
5 5 7 4 5 7 4 5 7 4 5 7 
4 4 6 4 4 6 4 4 6 3 4 5 
3 4 5 3 3 5 3 3 5 3 3 4 
3 3 4 2 3 4 2 3 4 2 2 3 
2 2 3 2 2 3 2 2 3 2 2 3 
1 2 2 1 1 2 1 1 2 1 1 2 
1 1 1 1 1 1 1 1 1 1 1 1 
0 0 1 0 0 1 0 0 0 0 0 0 
