P3
1 256
255
255 253 227 253 252 227 252 252 228 250 252 228 
248 252 228 246 252 229 243 252 229 241 252 230 
238 252 231 236 252 231 233 252 232 230 252 233 
227 252 233 224 252 234 221 252 235 218 252 236 
215 252 236 212 253 237 208 253 238 205 253 239 
201 253 240 198 253 241 194 253 242 191 253 242 
187 253 243 183 253 244 180 253 245 176 252 246 
172 252 247 169 252 247 165 252 248 161 252 249 
157 251 250 154 251 250 150 251 251 147 250 252 
143 250 252 139 249 253 136 249 253 132 248 254 
129 247 254 126 247 255 122 246 255 119 245 255 
116 244 255 113 243 255 110 242 255 107 240 255 
104 239 255 101 238 255 98 236 255 96 235 255 
93 233 255 91 231 255 89 230 255 88 229 255 
87 228 255 86 227 254 86 226 254 85 225 254 
84 224 254 83 224 253 82 223 253 81 222 253 
81 221 253 80 220 252 79 219 252 78 218 252 
77 216 251 77 215 251 76 214 251 75 213 250 
74 212 250 74 211 250 73 210 249 72 208 249 
72 207 249 71 206 248 70 205 248 70 203 247 
69 202 247 68 201 247 68 199 246 67 198 246 
66 197 245 66 195 245 65 194 244 64 192 244 
64 191 243 63 190 243 62 188 242 62 187 242 
61 185 241 61 184 241 60 182 240 59 181 240 
59 179 239 58 178 239 58 176 238 57 175 238 
57 173 237 56 172 237 55 170 236 55 169 235 
54 167 235 54 165 234 53 164 234 53 162 233 
52 161 233 52 159 232 51 157 231 51 156 231 
50 154 230 50 152 229 49 151 229 49 149 228 
48 148 228 48 146 227 47 144 226 47 143 226 
47 141 225 46 139 224 46 138 224 45 136 223 
45 134 222 44 133 222 44 131 221 43 130 220 
43 128 220 43 126 219 42 125 218 42 123 218 
41 121 217 41 120 216 40 118 216 40 117 215 
40 115 214 39 113 214 39 112 213 38 110 212 
38 109 212 38 107 211 37 105 210 37 104 210 
37 102 209 36 101 208 36 99 207 35 98 207 
35 96 206 35 95 205 34 93 205 34 92 204 
34 90 203 33 89 203 33 87 202 33 86 201 
32 84 200 32 83 200 32 82 199 31 80 198 
31 79 198 30 77 197 30 76 196 30 75 196 
29 73 195 29 72 194 29 71 194 28 69 193 
28 68 192 28 67 192 27 66 191 27 65 190 
27 63 190 26 62 189 26 61 188 26 60 188 
25 59 187 25 58 186 25 57 186 24 56 185 
24 55 184 24 54 184 24 53 183 23 52 182 
23 51 182 23 50 181 22 49 181 22 48 180 
21 46 179 21 45 178 20 43 176 19 42 175 
19 40 174 18 39 173 18 37 171 17 36 170 
17 35 169 16 33 167 16 32 166 15 31 164 
15 30 163 15 29 162 14 28 160 14 27 159 
13 26 157 13 25 156 12 24 154 12 23 153 
12 22 151 11 21 150 11 20 148 11 19 147 
10 19 145 10 18 144 10 17 142 10 17 141 
9 16 139 9 15 138 9 15 136 8 14 135 
8 13 134 8 13 132 8 12 131 7 12 129 
7 11 128 7 11 126 7 10 125 7 10 123 
6 9 122 6 9 121 6 9 119 6 8 118 
6 8 117 6 7 115 5 7 114 5 7 113 
5 6 111 5 6 110 5 6 109 5 5 108 
4 5 107 4 5 106 4 4 104 4 4 103 
4 4 102 4 4 101 4 3 100 3 3 99 
3 3 98 3 2 97 3 2 97 3 2 96 
3 1 95 3 1 94 2 1 93 2 0 93 
